<?xml version="1.0" encoding="UTF-8" standalone="no"?>
<!-- Created with Inkscape (http://www.inkscape.org/) -->
<svg
   xmlns:dc="http://purl.org/dc/elements/1.1/"
   xmlns:cc="http://web.resource.org/cc/"
   xmlns:rdf="http://www.w3.org/1999/02/22-rdf-syntax-ns#"
   xmlns:svg="http://www.w3.org/2000/svg"
   xmlns="http://www.w3.org/2000/svg"
   xmlns:sodipodi="http://sodipodi.sourceforge.net/DTD/sodipodi-0.dtd"
   xmlns:inkscape="http://www.inkscape.org/namespaces/inkscape"
   version="1.0"
   width="64"
   height="64"
   id="svg2160"
   sodipodi:version="0.32"
   inkscape:version="0.45"
   sodipodi:docname="enemy2.svg"
   sodipodi:docbase="/home/rj/stuff/School/Projects/pylagasf/data/enemys"
   inkscape:output_extension="org.inkscape.output.svg.inkscape"
   sodipodi:modified="true">
  <metadata
     id="metadata2294">
    <rdf:RDF>
      <cc:Work
         rdf:about="">
        <dc:format>image/svg+xml</dc:format>
        <dc:type
           rdf:resource="http://purl.org/dc/dcmitype/StillImage" />
      </cc:Work>
    </rdf:RDF>
  </metadata>
  <sodipodi:namedview
     inkscape:window-height="619"
     inkscape:window-width="872"
     inkscape:pageshadow="2"
     inkscape:pageopacity="0.0"
     guidetolerance="10.0"
     gridtolerance="10.0"
     objecttolerance="10.0"
     borderopacity="1.0"
     bordercolor="#666666"
     pagecolor="#ffffff"
     id="base"
     inkscape:zoom="8.9935144"
     inkscape:cx="34.740387"
     inkscape:cy="20.559555"
     inkscape:window-x="0"
     inkscape:window-y="29"
     inkscape:current-layer="svg2160" />
  <defs
     id="defs2162" />
  <g
     id="layer1">
    <path
       d="M 28.31941,65.474201 C 28.31941,65.474201 30.633183,54.341942 41.45723,44.253538 C 49.995827,36.295257 60.706029,33.379508 61.090909,22 C 61.092505,9.9414567 64.8598,-6.2614965 48.909091,7.8181818 C 43.853808,12.280476 30.545455,14.636364 30.545455,14.636364"
       style="fill:none;fill-rule:evenodd;stroke:#000000;stroke-width:1px;stroke-linecap:butt;stroke-linejoin:miter;stroke-opacity:1"
       id="path2168"
       sodipodi:nodetypes="cscsc" />
    <path
       d="M 39.818182 9 A 4.181818 4.2727275 0 1 1  31.454546,9 A 4.181818 4.2727275 0 1 1  39.818182 9 z"
       style="fill:#ff0000;fill-rule:evenodd;stroke:#000000;stroke-width:1px;stroke-linecap:butt;stroke-linejoin:miter;stroke-opacity:1"
       id="path2170" />
    <path
       d="M 47.999999 6.5454545 A 2.909091 2.909091 0 1 1  42.181817,6.5454545 A 2.909091 2.909091 0 1 1  47.999999 6.5454545 z"
       style="fill:#ff0000;fill-rule:evenodd;stroke:#000000;stroke-width:1px;stroke-linecap:butt;stroke-linejoin:miter;stroke-opacity:1"
       id="path2172" />
    <path
       d="M 52.363637 4.090909 A 1.4545455 1.5454545 0 1 1  49.454546,4.090909 A 1.4545455 1.5454545 0 1 1  52.363637 4.090909 z"
       style="fill:#ff0000;fill-rule:evenodd;stroke:#000000;stroke-width:1px;stroke-linecap:butt;stroke-linejoin:miter;stroke-opacity:1"
       id="path2176" />
    <path
       d="M 30,19 C 30,19 41.245076,17.80578 48.545455,13.636363 C 58.582216,7.9041341 54.890165,25.590245 51.393699,28.3937 C 51.393699,28.3937 51.126511,29.577056 39.364358,38.272006 C 32.986104,42.98701 31.325235,44.22094 31.325235,44.22094"
       style="fill:none;fill-rule:evenodd;stroke:#000000;stroke-width:1px;stroke-linecap:butt;stroke-linejoin:miter;stroke-opacity:1"
       id="path2184"
       sodipodi:nodetypes="cscsc" />
    <path
       d="M 37.7543,31.594594 C 37.7543,38.67388 34.620294,44.412776 30.7543,44.412776 C 26.888307,44.412776 23.7543,38.67388 23.7543,31.594594 C 23.7543,24.515307 26.888307,18.776412 30.7543,18.776412 C 34.620294,18.776412 37.7543,24.515307 37.7543,31.594594 L 37.7543,31.594594 z "
       style="fill:#ff0000;fill-rule:evenodd;stroke:#000000;stroke-width:1px;stroke-linecap:butt;stroke-linejoin:miter;stroke-opacity:1"
       id="path2178" />
  </g>
</svg>
